<?xml version="1.0" standalone="no"?>
<!DOCTYPE svg PUBLIC "-//W3C//DTD SVG 20010904//EN"
 "http://www.w3.org/TR/2001/REC-SVG-20010904/DTD/svg10.dtd">
<svg version="1.0" xmlns="http://www.w3.org/2000/svg"
 width="280.000000pt" height="280.000000pt" viewBox="0 0 280.000000 280.000000"
 preserveAspectRatio="xMidYMid meet">

<g transform="translate(0.000000,280.000000) scale(0.100000,-0.100000)"
fill="#000000" stroke="none">
<path d="M0 1400 l0 -1400 1400 0 1400 0 0 1400 0 1400 -1400 0 -1400 0 0
-1400z m1890 425 l0 -245 -242 -2 -242 -3 240 -240 239 -240 -242 -3 -243 -2
-2 -241 -3 -241 -242 242 -243 242 0 244 0 244 246 0 246 0 -223 223 c-123
123 -233 234 -243 245 l-19 22 486 0 487 0 0 -245z"/>
</g>
</svg>
