<svg width="181" height="280" viewBox="0 0 181 280" xmlns="http://www.w3.org/2000/svg">
  <g fill="currentColor">
    <circle cx="52" cy="194" r="14"/>
    <circle cx="51" cy="230" r="14"/>
    <circle cx="52" cy="266" r="14"/>
    <circle cx="88" cy="230" r="14"/>
    <circle cx="91" cy="194" r="14"/>
    <circle cx="129" cy="122" r="14"/>
    <circle cx="127" cy="86" r="14"/>
    <circle cx="129" cy="158" r="14"/>
    <circle cx="129" cy="194" r="14"/>
    <circle cx="167" cy="144" r="14"/>
    <circle cx="89" cy="86" r="14"/>
    <circle cx="91" cy="122" r="14"/>
    <circle cx="89" cy="158" r="14"/>
    <circle cx="52" cy="50" r="14"/>
    <circle cx="91" cy="50" r="14"/>
    <circle cx="52" cy="14" r="14"/>
    <circle cx="14" cy="230" r="14"/>
    <circle cx="15" cy="266" r="14"/>
    <circle cx="15" cy="50" r="14"/>
    <circle cx="15" cy="14" r="14"/>
    <circle cx="51" cy="86" r="14"/>
  </g>
</svg>
