<svg width="135" height="272" viewBox="0 0 135 272" xmlns="http://www.w3.org/2000/svg">
  <g fill="currentColor">
    <circle cx="7.364" cy="58.909" r="7.364"/>
    <circle cx="8.591" cy="7.364" r="7.364"/>
    <circle cx="7.364" cy="263.864" r="7.364"/>
    <circle cx="8.591" cy="33.136" r="7.364"/>
    <circle cx="78.545" cy="84.682" r="7.364"/>
    <circle cx="78.545" cy="110.455" r="7.364"/>
    <circle cx="55.227" cy="110.455" r="7.364"/>
    <circle cx="31.909" cy="110.455" r="7.364"/>

    <circle cx="54" cy="58.909" r="7.364"/>
    <circle cx="55.227" cy="84.682" r="7.364"/>
    <circle cx="31.909" cy="84.682" r="7.364"/>
    <circle cx="31.909" cy="33.136" r="7.364"/>

    <circle cx="7.364" cy="238.091" r="7.364"/>
    <circle cx="30.682" cy="238.091" r="7.364"/>
    <circle cx="30.682" cy="58.909" r="7.364"/>

    <circle cx="7.364" cy="212.318" r="7.364"/>
    <circle cx="54" cy="212.318" r="7.364"/>
    <circle cx="30.682" cy="212.318" r="7.364"/>
    <circle cx="30.682" cy="186.545" r="7.364"/>

    <circle cx="77.318" cy="186.545" r="7.364"/>
    <circle cx="54" cy="186.545" r="7.364"/>
    <circle cx="103.315" cy="110.455" r="7.364"/>

    <circle cx="78.545" cy="136.227" r="7.364"/>
    <circle cx="55.227" cy="136.227" r="7.364"/>
    <circle cx="103.315" cy="136.227" r="7.364"/>
    <circle cx="127.636" cy="136.227" r="7.364"/>

    <circle cx="77.318" cy="162" r="7.364"/>
    <circle cx="54" cy="162" r="7.364"/>
    <circle cx="31.909" cy="162" r="7.364"/>
    <circle cx="102.087" cy="162" r="7.364"/>
  </g>
</svg>
