<svg xmlns="http://www.w3.org/2000/svg" version="1.1" xmlns:xlink="http://www.w3.org/1999/xlink" width="181" height="280"><svg xmlns="http://www.w3.org/2000/svg" width="181" height="280" viewBox="0 0 181 280">
  <g fill="currentColor">
    <circle cx="52" cy="194" r="14" fill="#5943e4"></circle>
    <circle cx="51" cy="230" r="14" fill="#5943e4"></circle>
    <circle cx="52" cy="266" r="14" fill="#5943e4"></circle>
    <circle cx="88" cy="230" r="14" fill="#5943e4"></circle>
    <circle cx="91" cy="194" r="14" fill="#5943e4"></circle>
    <circle cx="129" cy="122" r="14" fill="#5943e4"></circle>
    <circle cx="127" cy="86" r="14" fill="#5943e4"></circle>
    <circle cx="129" cy="158" r="14" fill="#5943e4"></circle>
    <circle cx="129" cy="194" r="14" fill="#5943e4"></circle>
    <circle cx="167" cy="144" r="14" fill="#5943e4"></circle>
    <circle cx="89" cy="86" r="14" fill="#5943e4"></circle>
    <circle cx="91" cy="122" r="14" fill="#5943e4"></circle>
    <circle cx="89" cy="158" r="14" fill="#5943e4"></circle>
    <circle cx="52" cy="50" r="14" fill="#5943e4"></circle>
    <circle cx="91" cy="50" r="14" fill="#5943e4"></circle>
    <circle cx="52" cy="14" r="14" fill="#5943e4"></circle>
    <circle cx="14" cy="230" r="14" fill="#5943e4"></circle>
    <circle cx="15" cy="266" r="14" fill="#5943e4"></circle>
    <circle cx="15" cy="50" r="14" fill="#5943e4"></circle>
    <circle cx="15" cy="14" r="14" fill="#5943e4"></circle>
    <circle cx="51" cy="86" r="14" fill="#5943e4"></circle>
  </g>
</svg><style>@media (prefers-color-scheme: light) { :root { filter: none; } }
@media (prefers-color-scheme: dark) { :root { filter: none; } }
</style></svg>